<?xml version="1.0" encoding="UTF-8" standalone="no"?>
<!DOCTYPE svg PUBLIC "-//W3C//DTD SVG 1.1//EN"
 "http://www.w3.org/Graphics/SVG/1.1/DTD/svg11.dtd">
<!-- Generated by graphviz version 2.49.3 (20211023.0002)
 -->
<!-- Pages: 1 -->
<svg width="2129pt" height="836pt"
 viewBox="0.00 0.00 2129.09 836.00" xmlns="http://www.w3.org/2000/svg" xmlns:xlink="http://www.w3.org/1999/xlink">
<g id="graph0" class="graph" transform="scale(1 1) rotate(0) translate(4 832)">
<polygon fill="white" stroke="transparent" points="-4,4 -4,-832 2125.09,-832 2125.09,4 -4,4"/>
<!-- [root] azurerm_kubernetes_cluster.aks (expand) -->
<g id="node1" class="node">
<title>[root] azurerm_kubernetes_cluster.aks (expand)</title>
<polygon fill="none" stroke="black" points="1705.09,-324 1510.09,-324 1510.09,-288 1705.09,-288 1705.09,-324"/>
<text text-anchor="middle" x="1607.59" y="-302.3" font-family="Times New Roman,serif" font-size="14.00">azurerm_kubernetes_cluster.aks</text>
</g>
<!-- [root] azurerm_subnet.snet (expand) -->
<g id="node6" class="node">
<title>[root] azurerm_subnet.snet (expand)</title>
<polygon fill="none" stroke="black" points="1197.09,-252 1066.09,-252 1066.09,-216 1197.09,-216 1197.09,-252"/>
<text text-anchor="middle" x="1131.59" y="-230.3" font-family="Times New Roman,serif" font-size="14.00">azurerm_subnet.snet</text>
</g>
<!-- [root] azurerm_kubernetes_cluster.aks (expand)&#45;&gt;[root] azurerm_subnet.snet (expand) -->
<g id="edge1" class="edge">
<title>[root] azurerm_kubernetes_cluster.aks (expand)&#45;&gt;[root] azurerm_subnet.snet (expand)</title>
<path fill="none" stroke="black" d="M1509.96,-294.63C1430.91,-285.64 1316.52,-271.31 1207.25,-252.03"/>
<polygon fill="black" stroke="black" points="1207.83,-248.58 1197.37,-250.27 1206.6,-255.47 1207.83,-248.58"/>
</g>
<!-- [root] var.cluster_name -->
<g id="node15" class="node">
<title>[root] var.cluster_name</title>
<polygon fill="none" stroke="black" points="2115.09,-252 2010.09,-252 2010.09,-216 2121.09,-216 2121.09,-246 2115.09,-252"/>
<polyline fill="none" stroke="black" points="2115.09,-252 2115.09,-246 "/>
<polyline fill="none" stroke="black" points="2121.09,-246 2115.09,-246 "/>
<text text-anchor="middle" x="2065.59" y="-230.3" font-family="Times New Roman,serif" font-size="14.00">var.cluster_name</text>
</g>
<!-- [root] azurerm_kubernetes_cluster.aks (expand)&#45;&gt;[root] var.cluster_name -->
<g id="edge2" class="edge">
<title>[root] azurerm_kubernetes_cluster.aks (expand)&#45;&gt;[root] var.cluster_name</title>
<path fill="none" stroke="black" d="M1705.3,-295.32C1782.95,-286.82 1894.41,-272.84 1999.97,-252.2"/>
<polygon fill="black" stroke="black" points="2000.7,-255.63 2009.83,-250.25 1999.35,-248.76 2000.7,-255.63"/>
</g>
<!-- [root] var.dns_prefix_name -->
<g id="node16" class="node">
<title>[root] var.dns_prefix_name</title>
<polygon fill="none" stroke="black" points="1343.59,-252 1215.59,-252 1215.59,-216 1349.59,-216 1349.59,-246 1343.59,-252"/>
<polyline fill="none" stroke="black" points="1343.59,-252 1343.59,-246 "/>
<polyline fill="none" stroke="black" points="1349.59,-246 1343.59,-246 "/>
<text text-anchor="middle" x="1282.59" y="-230.3" font-family="Times New Roman,serif" font-size="14.00">var.dns_prefix_name</text>
</g>
<!-- [root] azurerm_kubernetes_cluster.aks (expand)&#45;&gt;[root] var.dns_prefix_name -->
<g id="edge3" class="edge">
<title>[root] azurerm_kubernetes_cluster.aks (expand)&#45;&gt;[root] var.dns_prefix_name</title>
<path fill="none" stroke="black" d="M1526.52,-287.97C1480.28,-278.2 1420.99,-265.59 1359.59,-252.21"/>
<polygon fill="black" stroke="black" points="1360.23,-248.77 1349.71,-250.06 1358.74,-255.61 1360.23,-248.77"/>
</g>
<!-- [root] var.docker_cidr -->
<g id="node17" class="node">
<title>[root] var.docker_cidr</title>
<polygon fill="none" stroke="black" points="1467.59,-252 1367.59,-252 1367.59,-216 1473.59,-216 1473.59,-246 1467.59,-252"/>
<polyline fill="none" stroke="black" points="1467.59,-252 1467.59,-246 "/>
<polyline fill="none" stroke="black" points="1473.59,-246 1467.59,-246 "/>
<text text-anchor="middle" x="1420.59" y="-230.3" font-family="Times New Roman,serif" font-size="14.00">var.docker_cidr</text>
</g>
<!-- [root] azurerm_kubernetes_cluster.aks (expand)&#45;&gt;[root] var.docker_cidr -->
<g id="edge4" class="edge">
<title>[root] azurerm_kubernetes_cluster.aks (expand)&#45;&gt;[root] var.docker_cidr</title>
<path fill="none" stroke="black" d="M1561.84,-287.88C1535.82,-278.14 1503.06,-265.87 1475.64,-255.61"/>
<polygon fill="black" stroke="black" points="1476.77,-252.3 1466.18,-252.07 1474.32,-258.85 1476.77,-252.3"/>
</g>
<!-- [root] var.node_resource_group -->
<g id="node19" class="node">
<title>[root] var.node_resource_group</title>
<polygon fill="none" stroke="black" points="1647.09,-252 1492.09,-252 1492.09,-216 1653.09,-216 1653.09,-246 1647.09,-252"/>
<polyline fill="none" stroke="black" points="1647.09,-252 1647.09,-246 "/>
<polyline fill="none" stroke="black" points="1653.09,-246 1647.09,-246 "/>
<text text-anchor="middle" x="1572.59" y="-230.3" font-family="Times New Roman,serif" font-size="14.00">var.node_resource_group</text>
</g>
<!-- [root] azurerm_kubernetes_cluster.aks (expand)&#45;&gt;[root] var.node_resource_group -->
<g id="edge5" class="edge">
<title>[root] azurerm_kubernetes_cluster.aks (expand)&#45;&gt;[root] var.node_resource_group</title>
<path fill="none" stroke="black" d="M1598.93,-287.7C1594.95,-279.73 1590.14,-270.1 1585.72,-261.26"/>
<polygon fill="black" stroke="black" points="1588.74,-259.48 1581.14,-252.1 1582.48,-262.61 1588.74,-259.48"/>
</g>
<!-- [root] var.service_cidr -->
<g id="node26" class="node">
<title>[root] var.service_cidr</title>
<polygon fill="none" stroke="black" points="1771.59,-252 1671.59,-252 1671.59,-216 1777.59,-216 1777.59,-246 1771.59,-252"/>
<polyline fill="none" stroke="black" points="1771.59,-252 1771.59,-246 "/>
<polyline fill="none" stroke="black" points="1777.59,-246 1771.59,-246 "/>
<text text-anchor="middle" x="1724.59" y="-230.3" font-family="Times New Roman,serif" font-size="14.00">var.service_cidr</text>
</g>
<!-- [root] azurerm_kubernetes_cluster.aks (expand)&#45;&gt;[root] var.service_cidr -->
<g id="edge6" class="edge">
<title>[root] azurerm_kubernetes_cluster.aks (expand)&#45;&gt;[root] var.service_cidr</title>
<path fill="none" stroke="black" d="M1636.21,-287.88C1651.5,-278.72 1670.53,-267.34 1687,-257.48"/>
<polygon fill="black" stroke="black" points="1689.07,-260.33 1695.85,-252.19 1685.48,-254.32 1689.07,-260.33"/>
</g>
<!-- [root] var.service_ip -->
<g id="node27" class="node">
<title>[root] var.service_ip</title>
<polygon fill="none" stroke="black" points="1885.09,-252 1796.09,-252 1796.09,-216 1891.09,-216 1891.09,-246 1885.09,-252"/>
<polyline fill="none" stroke="black" points="1885.09,-252 1885.09,-246 "/>
<polyline fill="none" stroke="black" points="1891.09,-246 1885.09,-246 "/>
<text text-anchor="middle" x="1843.59" y="-230.3" font-family="Times New Roman,serif" font-size="14.00">var.service_ip</text>
</g>
<!-- [root] azurerm_kubernetes_cluster.aks (expand)&#45;&gt;[root] var.service_ip -->
<g id="edge7" class="edge">
<title>[root] azurerm_kubernetes_cluster.aks (expand)&#45;&gt;[root] var.service_ip</title>
<path fill="none" stroke="black" d="M1665.23,-287.96C1698.06,-278.25 1740.19,-265.78 1786.4,-252.05"/>
<polygon fill="black" stroke="black" points="1787.41,-255.4 1796,-249.2 1785.42,-248.69 1787.41,-255.4"/>
</g>
<!-- [root] var.vm_size -->
<g id="node31" class="node">
<title>[root] var.vm_size</title>
<polygon fill="none" stroke="black" points="1986.09,-252 1909.09,-252 1909.09,-216 1992.09,-216 1992.09,-246 1986.09,-252"/>
<polyline fill="none" stroke="black" points="1986.09,-252 1986.09,-246 "/>
<polyline fill="none" stroke="black" points="1992.09,-246 1986.09,-246 "/>
<text text-anchor="middle" x="1950.59" y="-230.3" font-family="Times New Roman,serif" font-size="14.00">var.vm_size</text>
</g>
<!-- [root] azurerm_kubernetes_cluster.aks (expand)&#45;&gt;[root] var.vm_size -->
<g id="edge8" class="edge">
<title>[root] azurerm_kubernetes_cluster.aks (expand)&#45;&gt;[root] var.vm_size</title>
<path fill="none" stroke="black" d="M1705.37,-291.04C1760.13,-282.35 1829.7,-269.83 1899.18,-252.19"/>
<polygon fill="black" stroke="black" points="1900.17,-255.55 1908.98,-249.66 1898.43,-248.77 1900.17,-255.55"/>
</g>
<!-- [root] azurerm_postgresql_database.pg_db (expand) -->
<g id="node2" class="node">
<title>[root] azurerm_postgresql_database.pg_db (expand)</title>
<polygon fill="none" stroke="black" points="1214.59,-396 990.59,-396 990.59,-360 1214.59,-360 1214.59,-396"/>
<text text-anchor="middle" x="1102.59" y="-374.3" font-family="Times New Roman,serif" font-size="14.00">azurerm_postgresql_database.pg_db</text>
</g>
<!-- [root] azurerm_postgresql_server.pg_server (expand) -->
<g id="node3" class="node">
<title>[root] azurerm_postgresql_server.pg_server (expand)</title>
<polygon fill="none" stroke="black" points="923.09,-324 696.09,-324 696.09,-288 923.09,-288 923.09,-324"/>
<text text-anchor="middle" x="809.59" y="-302.3" font-family="Times New Roman,serif" font-size="14.00">azurerm_postgresql_server.pg_server</text>
</g>
<!-- [root] azurerm_postgresql_database.pg_db (expand)&#45;&gt;[root] azurerm_postgresql_server.pg_server (expand) -->
<g id="edge9" class="edge">
<title>[root] azurerm_postgresql_database.pg_db (expand)&#45;&gt;[root] azurerm_postgresql_server.pg_server (expand)</title>
<path fill="none" stroke="black" d="M1031.28,-359.97C988.84,-349.83 934.85,-336.93 890.77,-326.4"/>
<polygon fill="black" stroke="black" points="891.49,-322.97 880.95,-324.05 889.87,-329.78 891.49,-322.97"/>
</g>
<!-- [root] var.pgdb_name -->
<g id="node20" class="node">
<title>[root] var.pgdb_name</title>
<polygon fill="none" stroke="black" points="1148.59,-324 1050.59,-324 1050.59,-288 1154.59,-288 1154.59,-318 1148.59,-324"/>
<polyline fill="none" stroke="black" points="1148.59,-324 1148.59,-318 "/>
<polyline fill="none" stroke="black" points="1154.59,-318 1148.59,-318 "/>
<text text-anchor="middle" x="1102.59" y="-302.3" font-family="Times New Roman,serif" font-size="14.00">var.pgdb_name</text>
</g>
<!-- [root] azurerm_postgresql_database.pg_db (expand)&#45;&gt;[root] var.pgdb_name -->
<g id="edge10" class="edge">
<title>[root] azurerm_postgresql_database.pg_db (expand)&#45;&gt;[root] var.pgdb_name</title>
<path fill="none" stroke="black" d="M1102.59,-359.7C1102.59,-351.98 1102.59,-342.71 1102.59,-334.11"/>
<polygon fill="black" stroke="black" points="1106.09,-334.1 1102.59,-324.1 1099.09,-334.1 1106.09,-334.1"/>
</g>
<!-- [root] azurerm_resource_group.rg (expand) -->
<g id="node5" class="node">
<title>[root] azurerm_resource_group.rg (expand)</title>
<polygon fill="none" stroke="black" points="700.59,-108 528.59,-108 528.59,-72 700.59,-72 700.59,-108"/>
<text text-anchor="middle" x="614.59" y="-86.3" font-family="Times New Roman,serif" font-size="14.00">azurerm_resource_group.rg</text>
</g>
<!-- [root] azurerm_postgresql_server.pg_server (expand)&#45;&gt;[root] azurerm_resource_group.rg (expand) -->
<g id="edge11" class="edge">
<title>[root] azurerm_postgresql_server.pg_server (expand)&#45;&gt;[root] azurerm_resource_group.rg (expand)</title>
<path fill="none" stroke="black" d="M695.9,-291.14C648.43,-282.8 600.96,-270.19 586.59,-252 555.72,-212.93 580.33,-151.76 598.86,-117.16"/>
<polygon fill="black" stroke="black" points="602.08,-118.58 603.88,-108.14 595.96,-115.18 602.08,-118.58"/>
</g>
<!-- [root] var.pgserver_name -->
<g id="node21" class="node">
<title>[root] var.pgserver_name</title>
<polygon fill="none" stroke="black" points="711.59,-252 595.59,-252 595.59,-216 717.59,-216 717.59,-246 711.59,-252"/>
<polyline fill="none" stroke="black" points="711.59,-252 711.59,-246 "/>
<polyline fill="none" stroke="black" points="717.59,-246 711.59,-246 "/>
<text text-anchor="middle" x="656.59" y="-230.3" font-family="Times New Roman,serif" font-size="14.00">var.pgserver_name</text>
</g>
<!-- [root] azurerm_postgresql_server.pg_server (expand)&#45;&gt;[root] var.pgserver_name -->
<g id="edge12" class="edge">
<title>[root] azurerm_postgresql_server.pg_server (expand)&#45;&gt;[root] var.pgserver_name</title>
<path fill="none" stroke="black" d="M772.16,-287.88C751.33,-278.35 725.23,-266.41 703.1,-256.28"/>
<polygon fill="black" stroke="black" points="704.44,-253.05 693.89,-252.07 701.53,-259.41 704.44,-253.05"/>
</g>
<!-- [root] var.pgserver_password -->
<g id="node22" class="node">
<title>[root] var.pgserver_password</title>
<polygon fill="none" stroke="black" points="877.59,-252 735.59,-252 735.59,-216 883.59,-216 883.59,-246 877.59,-252"/>
<polyline fill="none" stroke="black" points="877.59,-252 877.59,-246 "/>
<polyline fill="none" stroke="black" points="883.59,-246 877.59,-246 "/>
<text text-anchor="middle" x="809.59" y="-230.3" font-family="Times New Roman,serif" font-size="14.00">var.pgserver_password</text>
</g>
<!-- [root] azurerm_postgresql_server.pg_server (expand)&#45;&gt;[root] var.pgserver_password -->
<g id="edge13" class="edge">
<title>[root] azurerm_postgresql_server.pg_server (expand)&#45;&gt;[root] var.pgserver_password</title>
<path fill="none" stroke="black" d="M809.59,-287.7C809.59,-279.98 809.59,-270.71 809.59,-262.11"/>
<polygon fill="black" stroke="black" points="813.09,-262.1 809.59,-252.1 806.09,-262.1 813.09,-262.1"/>
</g>
<!-- [root] var.pgserver_username -->
<g id="node23" class="node">
<title>[root] var.pgserver_username</title>
<polygon fill="none" stroke="black" points="1041.59,-252 901.59,-252 901.59,-216 1047.59,-216 1047.59,-246 1041.59,-252"/>
<polyline fill="none" stroke="black" points="1041.59,-252 1041.59,-246 "/>
<polyline fill="none" stroke="black" points="1047.59,-246 1041.59,-246 "/>
<text text-anchor="middle" x="974.59" y="-230.3" font-family="Times New Roman,serif" font-size="14.00">var.pgserver_username</text>
</g>
<!-- [root] azurerm_postgresql_server.pg_server (expand)&#45;&gt;[root] var.pgserver_username -->
<g id="edge14" class="edge">
<title>[root] azurerm_postgresql_server.pg_server (expand)&#45;&gt;[root] var.pgserver_username</title>
<path fill="none" stroke="black" d="M849.95,-287.88C872.61,-278.26 901.06,-266.19 925.06,-256.01"/>
<polygon fill="black" stroke="black" points="926.51,-259.2 934.35,-252.07 923.78,-252.75 926.51,-259.2"/>
</g>
<!-- [root] azurerm_postgresql_virtual_network_rule.pg_vnet_rule (expand) -->
<g id="node4" class="node">
<title>[root] azurerm_postgresql_virtual_network_rule.pg_vnet_rule (expand)</title>
<polygon fill="none" stroke="black" points="972.09,-396 647.09,-396 647.09,-360 972.09,-360 972.09,-396"/>
<text text-anchor="middle" x="809.59" y="-374.3" font-family="Times New Roman,serif" font-size="14.00">azurerm_postgresql_virtual_network_rule.pg_vnet_rule</text>
</g>
<!-- [root] azurerm_postgresql_virtual_network_rule.pg_vnet_rule (expand)&#45;&gt;[root] azurerm_postgresql_server.pg_server (expand) -->
<g id="edge15" class="edge">
<title>[root] azurerm_postgresql_virtual_network_rule.pg_vnet_rule (expand)&#45;&gt;[root] azurerm_postgresql_server.pg_server (expand)</title>
<path fill="none" stroke="black" d="M809.59,-359.7C809.59,-351.98 809.59,-342.71 809.59,-334.11"/>
<polygon fill="black" stroke="black" points="813.09,-334.1 809.59,-324.1 806.09,-334.1 813.09,-334.1"/>
</g>
<!-- [root] azurerm_postgresql_virtual_network_rule.pg_vnet_rule (expand)&#45;&gt;[root] azurerm_subnet.snet (expand) -->
<g id="edge16" class="edge">
<title>[root] azurerm_postgresql_virtual_network_rule.pg_vnet_rule (expand)&#45;&gt;[root] azurerm_subnet.snet (expand)</title>
<path fill="none" stroke="black" d="M849.18,-359.9C873.07,-349.56 904.1,-336.08 931.59,-324 983.76,-301.06 1043.45,-274.45 1083.94,-256.35"/>
<polygon fill="black" stroke="black" points="1085.59,-259.44 1093.29,-252.16 1082.73,-253.05 1085.59,-259.44"/>
</g>
<!-- [root] provider[&quot;registry.terraform.io/hashicorp/azurerm&quot;] -->
<g id="node13" class="node">
<title>[root] provider[&quot;registry.terraform.io/hashicorp/azurerm&quot;]</title>
<polygon fill="none" stroke="black" points="277.59,-36 -0.09,-18 277.59,0 555.26,-18 277.59,-36"/>
<text text-anchor="middle" x="277.59" y="-14.3" font-family="Times New Roman,serif" font-size="14.00">provider[&quot;registry.terraform.io/hashicorp/azurerm&quot;]</text>
</g>
<!-- [root] azurerm_resource_group.rg (expand)&#45;&gt;[root] provider[&quot;registry.terraform.io/hashicorp/azurerm&quot;] -->
<g id="edge17" class="edge">
<title>[root] azurerm_resource_group.rg (expand)&#45;&gt;[root] provider[&quot;registry.terraform.io/hashicorp/azurerm&quot;]</title>
<path fill="none" stroke="black" d="M532.58,-71.97C476.84,-60.39 403.79,-45.21 350.17,-34.08"/>
<polygon fill="black" stroke="black" points="350.55,-30.58 340.05,-31.98 349.13,-37.44 350.55,-30.58"/>
</g>
<!-- [root] var.location -->
<g id="node18" class="node">
<title>[root] var.location</title>
<polygon fill="none" stroke="black" points="649.59,-36 573.59,-36 573.59,0 655.59,0 655.59,-30 649.59,-36"/>
<polyline fill="none" stroke="black" points="649.59,-36 649.59,-30 "/>
<polyline fill="none" stroke="black" points="655.59,-30 649.59,-30 "/>
<text text-anchor="middle" x="614.59" y="-14.3" font-family="Times New Roman,serif" font-size="14.00">var.location</text>
</g>
<!-- [root] azurerm_resource_group.rg (expand)&#45;&gt;[root] var.location -->
<g id="edge18" class="edge">
<title>[root] azurerm_resource_group.rg (expand)&#45;&gt;[root] var.location</title>
<path fill="none" stroke="black" d="M614.59,-71.7C614.59,-63.98 614.59,-54.71 614.59,-46.11"/>
<polygon fill="black" stroke="black" points="618.09,-46.1 614.59,-36.1 611.09,-46.1 618.09,-46.1"/>
</g>
<!-- [root] var.resource_group_name -->
<g id="node25" class="node">
<title>[root] var.resource_group_name</title>
<polygon fill="none" stroke="black" points="831.09,-36 674.09,-36 674.09,0 837.09,0 837.09,-30 831.09,-36"/>
<polyline fill="none" stroke="black" points="831.09,-36 831.09,-30 "/>
<polyline fill="none" stroke="black" points="837.09,-30 831.09,-30 "/>
<text text-anchor="middle" x="755.59" y="-14.3" font-family="Times New Roman,serif" font-size="14.00">var.resource_group_name</text>
</g>
<!-- [root] azurerm_resource_group.rg (expand)&#45;&gt;[root] var.resource_group_name -->
<g id="edge19" class="edge">
<title>[root] azurerm_resource_group.rg (expand)&#45;&gt;[root] var.resource_group_name</title>
<path fill="none" stroke="black" d="M649.08,-71.88C668.03,-62.47 691.72,-50.71 711.94,-40.67"/>
<polygon fill="black" stroke="black" points="713.56,-43.77 720.96,-36.19 710.45,-37.5 713.56,-43.77"/>
</g>
<!-- [root] azurerm_virtual_network.vnet (expand) -->
<g id="node7" class="node">
<title>[root] azurerm_virtual_network.vnet (expand)</title>
<polygon fill="none" stroke="black" points="960.59,-180 778.59,-180 778.59,-144 960.59,-144 960.59,-180"/>
<text text-anchor="middle" x="869.59" y="-158.3" font-family="Times New Roman,serif" font-size="14.00">azurerm_virtual_network.vnet</text>
</g>
<!-- [root] azurerm_subnet.snet (expand)&#45;&gt;[root] azurerm_virtual_network.vnet (expand) -->
<g id="edge20" class="edge">
<title>[root] azurerm_subnet.snet (expand)&#45;&gt;[root] azurerm_virtual_network.vnet (expand)</title>
<path fill="none" stroke="black" d="M1067.83,-215.97C1030.27,-205.93 982.58,-193.19 943.4,-182.72"/>
<polygon fill="black" stroke="black" points="944.19,-179.31 933.63,-180.11 942.39,-186.07 944.19,-179.31"/>
</g>
<!-- [root] var.subnet_names -->
<g id="node28" class="node">
<title>[root] var.subnet_names</title>
<polygon fill="none" stroke="black" points="1117.09,-180 1006.09,-180 1006.09,-144 1123.09,-144 1123.09,-174 1117.09,-180"/>
<polyline fill="none" stroke="black" points="1117.09,-180 1117.09,-174 "/>
<polyline fill="none" stroke="black" points="1123.09,-174 1117.09,-174 "/>
<text text-anchor="middle" x="1064.59" y="-158.3" font-family="Times New Roman,serif" font-size="14.00">var.subnet_names</text>
</g>
<!-- [root] azurerm_subnet.snet (expand)&#45;&gt;[root] var.subnet_names -->
<g id="edge21" class="edge">
<title>[root] azurerm_subnet.snet (expand)&#45;&gt;[root] var.subnet_names</title>
<path fill="none" stroke="black" d="M1115.02,-215.7C1106.91,-207.22 1097,-196.86 1088.11,-187.58"/>
<polygon fill="black" stroke="black" points="1090.4,-184.91 1080.96,-180.1 1085.34,-189.75 1090.4,-184.91"/>
</g>
<!-- [root] var.subnet_prefix -->
<g id="node29" class="node">
<title>[root] var.subnet_prefix</title>
<polygon fill="none" stroke="black" points="1249.59,-180 1141.59,-180 1141.59,-144 1255.59,-144 1255.59,-174 1249.59,-180"/>
<polyline fill="none" stroke="black" points="1249.59,-180 1249.59,-174 "/>
<polyline fill="none" stroke="black" points="1255.59,-174 1249.59,-174 "/>
<text text-anchor="middle" x="1198.59" y="-158.3" font-family="Times New Roman,serif" font-size="14.00">var.subnet_prefix</text>
</g>
<!-- [root] azurerm_subnet.snet (expand)&#45;&gt;[root] var.subnet_prefix -->
<g id="edge22" class="edge">
<title>[root] azurerm_subnet.snet (expand)&#45;&gt;[root] var.subnet_prefix</title>
<path fill="none" stroke="black" d="M1148.15,-215.7C1156.26,-207.22 1166.17,-196.86 1175.06,-187.58"/>
<polygon fill="black" stroke="black" points="1177.83,-189.75 1182.21,-180.1 1172.77,-184.91 1177.83,-189.75"/>
</g>
<!-- [root] azurerm_virtual_network.vnet (expand)&#45;&gt;[root] azurerm_resource_group.rg (expand) -->
<g id="edge23" class="edge">
<title>[root] azurerm_virtual_network.vnet (expand)&#45;&gt;[root] azurerm_resource_group.rg (expand)</title>
<path fill="none" stroke="black" d="M807.53,-143.97C771.13,-133.97 724.96,-121.3 686.91,-110.85"/>
<polygon fill="black" stroke="black" points="687.49,-107.38 676.92,-108.11 685.63,-114.13 687.49,-107.38"/>
</g>
<!-- [root] var.virtual_network_name -->
<g id="node30" class="node">
<title>[root] var.virtual_network_name</title>
<polygon fill="none" stroke="black" points="1046.09,-108 891.09,-108 891.09,-72 1052.09,-72 1052.09,-102 1046.09,-108"/>
<polyline fill="none" stroke="black" points="1046.09,-108 1046.09,-102 "/>
<polyline fill="none" stroke="black" points="1052.09,-102 1046.09,-102 "/>
<text text-anchor="middle" x="971.59" y="-86.3" font-family="Times New Roman,serif" font-size="14.00">var.virtual_network_name</text>
</g>
<!-- [root] azurerm_virtual_network.vnet (expand)&#45;&gt;[root] var.virtual_network_name -->
<g id="edge24" class="edge">
<title>[root] azurerm_virtual_network.vnet (expand)&#45;&gt;[root] var.virtual_network_name</title>
<path fill="none" stroke="black" d="M894.54,-143.88C907.63,-134.89 923.85,-123.76 938.02,-114.03"/>
<polygon fill="black" stroke="black" points="940.27,-116.73 946.54,-108.19 936.31,-110.96 940.27,-116.73"/>
</g>
<!-- [root] var.vnet_prefix -->
<g id="node32" class="node">
<title>[root] var.vnet_prefix</title>
<polygon fill="none" stroke="black" points="867.09,-108 772.09,-108 772.09,-72 873.09,-72 873.09,-102 867.09,-108"/>
<polyline fill="none" stroke="black" points="867.09,-108 867.09,-102 "/>
<polyline fill="none" stroke="black" points="873.09,-102 867.09,-102 "/>
<text text-anchor="middle" x="822.59" y="-86.3" font-family="Times New Roman,serif" font-size="14.00">var.vnet_prefix</text>
</g>
<!-- [root] azurerm_virtual_network.vnet (expand)&#45;&gt;[root] var.vnet_prefix -->
<g id="edge25" class="edge">
<title>[root] azurerm_virtual_network.vnet (expand)&#45;&gt;[root] var.vnet_prefix</title>
<path fill="none" stroke="black" d="M857.97,-143.7C852.45,-135.47 845.74,-125.48 839.65,-116.42"/>
<polygon fill="black" stroke="black" points="842.55,-114.46 834.07,-108.1 836.74,-118.36 842.55,-114.46"/>
</g>
<!-- [root] kubernetes_deployment.deploy (expand) -->
<g id="node8" class="node">
<title>[root] kubernetes_deployment.deploy (expand)</title>
<polygon fill="none" stroke="black" points="1516.09,-540 1325.09,-540 1325.09,-504 1516.09,-504 1516.09,-540"/>
<text text-anchor="middle" x="1420.59" y="-518.3" font-family="Times New Roman,serif" font-size="14.00">kubernetes_deployment.deploy</text>
</g>
<!-- [root] kubernetes_job.job (expand) -->
<g id="node10" class="node">
<title>[root] kubernetes_job.job (expand)</title>
<polygon fill="none" stroke="black" points="1482.59,-468 1358.59,-468 1358.59,-432 1482.59,-432 1482.59,-468"/>
<text text-anchor="middle" x="1420.59" y="-446.3" font-family="Times New Roman,serif" font-size="14.00">kubernetes_job.job</text>
</g>
<!-- [root] kubernetes_deployment.deploy (expand)&#45;&gt;[root] kubernetes_job.job (expand) -->
<g id="edge26" class="edge">
<title>[root] kubernetes_deployment.deploy (expand)&#45;&gt;[root] kubernetes_job.job (expand)</title>
<path fill="none" stroke="black" d="M1420.59,-503.7C1420.59,-495.98 1420.59,-486.71 1420.59,-478.11"/>
<polygon fill="black" stroke="black" points="1424.09,-478.1 1420.59,-468.1 1417.09,-478.1 1424.09,-478.1"/>
</g>
<!-- [root] kubernetes_horizontal_pod_autoscaler.hpa (expand) -->
<g id="node9" class="node">
<title>[root] kubernetes_horizontal_pod_autoscaler.hpa (expand)</title>
<polygon fill="none" stroke="black" points="1417.09,-684 1160.09,-684 1160.09,-648 1417.09,-648 1417.09,-684"/>
<text text-anchor="middle" x="1288.59" y="-662.3" font-family="Times New Roman,serif" font-size="14.00">kubernetes_horizontal_pod_autoscaler.hpa</text>
</g>
<!-- [root] provider[&quot;registry.terraform.io/hashicorp/kubernetes&quot;] -->
<g id="node14" class="node">
<title>[root] provider[&quot;registry.terraform.io/hashicorp/kubernetes&quot;]</title>
<polygon fill="none" stroke="black" points="1642.59,-396 1350.5,-378 1642.59,-360 1934.67,-378 1642.59,-396"/>
<text text-anchor="middle" x="1642.59" y="-374.3" font-family="Times New Roman,serif" font-size="14.00">provider[&quot;registry.terraform.io/hashicorp/kubernetes&quot;]</text>
</g>
<!-- [root] kubernetes_horizontal_pod_autoscaler.hpa (expand)&#45;&gt;[root] provider[&quot;registry.terraform.io/hashicorp/kubernetes&quot;] -->
<g id="edge27" class="edge">
<title>[root] kubernetes_horizontal_pod_autoscaler.hpa (expand)&#45;&gt;[root] provider[&quot;registry.terraform.io/hashicorp/kubernetes&quot;]</title>
<path fill="none" stroke="black" d="M1417.19,-650.31C1447.26,-642.42 1477.73,-630.36 1502.59,-612 1575.41,-558.2 1617.71,-454.18 1634.34,-405.42"/>
<polygon fill="black" stroke="black" points="1637.67,-406.49 1637.5,-395.9 1631.03,-404.29 1637.67,-406.49"/>
</g>
<!-- [root] kubernetes_job.job (expand)&#45;&gt;[root] azurerm_postgresql_database.pg_db (expand) -->
<g id="edge28" class="edge">
<title>[root] kubernetes_job.job (expand)&#45;&gt;[root] azurerm_postgresql_database.pg_db (expand)</title>
<path fill="none" stroke="black" d="M1358.27,-433.99C1355.33,-433.31 1352.43,-432.65 1349.59,-432 1298.28,-420.36 1240.83,-407.99 1194.25,-398.13"/>
<polygon fill="black" stroke="black" points="1194.69,-394.65 1184.18,-396 1193.24,-401.49 1194.69,-394.65"/>
</g>
<!-- [root] kubernetes_job.job (expand)&#45;&gt;[root] provider[&quot;registry.terraform.io/hashicorp/kubernetes&quot;] -->
<g id="edge29" class="edge">
<title>[root] kubernetes_job.job (expand)&#45;&gt;[root] provider[&quot;registry.terraform.io/hashicorp/kubernetes&quot;]</title>
<path fill="none" stroke="black" d="M1474.61,-431.97C1508.84,-421.17 1552.98,-407.25 1587.42,-396.39"/>
<polygon fill="black" stroke="black" points="1588.83,-399.62 1597.32,-393.27 1586.73,-392.94 1588.83,-399.62"/>
</g>
<!-- [root] var.port -->
<g id="node24" class="node">
<title>[root] var.port</title>
<polygon fill="none" stroke="black" points="1326.09,-396 1271.09,-396 1271.09,-360 1332.09,-360 1332.09,-390 1326.09,-396"/>
<polyline fill="none" stroke="black" points="1326.09,-396 1326.09,-390 "/>
<polyline fill="none" stroke="black" points="1332.09,-390 1326.09,-390 "/>
<text text-anchor="middle" x="1301.59" y="-374.3" font-family="Times New Roman,serif" font-size="14.00">var.port</text>
</g>
<!-- [root] kubernetes_job.job (expand)&#45;&gt;[root] var.port -->
<g id="edge30" class="edge">
<title>[root] kubernetes_job.job (expand)&#45;&gt;[root] var.port</title>
<path fill="none" stroke="black" d="M1391.47,-431.88C1375.92,-422.72 1356.57,-411.34 1339.81,-401.48"/>
<polygon fill="black" stroke="black" points="1341.2,-398.24 1330.81,-396.19 1337.65,-404.28 1341.2,-398.24"/>
</g>
<!-- [root] kubernetes_service.svc (expand) -->
<g id="node11" class="node">
<title>[root] kubernetes_service.svc (expand)</title>
<polygon fill="none" stroke="black" points="1493.59,-612 1347.59,-612 1347.59,-576 1493.59,-576 1493.59,-612"/>
<text text-anchor="middle" x="1420.59" y="-590.3" font-family="Times New Roman,serif" font-size="14.00">kubernetes_service.svc</text>
</g>
<!-- [root] kubernetes_service.svc (expand)&#45;&gt;[root] kubernetes_deployment.deploy (expand) -->
<g id="edge31" class="edge">
<title>[root] kubernetes_service.svc (expand)&#45;&gt;[root] kubernetes_deployment.deploy (expand)</title>
<path fill="none" stroke="black" d="M1420.59,-575.7C1420.59,-567.98 1420.59,-558.71 1420.59,-550.11"/>
<polygon fill="black" stroke="black" points="1424.09,-550.1 1420.59,-540.1 1417.09,-550.1 1424.09,-550.1"/>
</g>
<!-- [root] output.Application_Access_IP -->
<g id="node12" class="node">
<title>[root] output.Application_Access_IP</title>
<polygon fill="none" stroke="black" points="1106.59,-684 922.59,-684 922.59,-648 1112.59,-648 1112.59,-678 1106.59,-684"/>
<polyline fill="none" stroke="black" points="1106.59,-684 1106.59,-678 "/>
<polyline fill="none" stroke="black" points="1112.59,-678 1106.59,-678 "/>
<text text-anchor="middle" x="1017.59" y="-662.3" font-family="Times New Roman,serif" font-size="14.00">output.Application_Access_IP</text>
</g>
<!-- [root] output.Application_Access_IP&#45;&gt;[root] kubernetes_service.svc (expand) -->
<g id="edge35" class="edge">
<title>[root] output.Application_Access_IP&#45;&gt;[root] kubernetes_service.svc (expand)</title>
<path fill="none" stroke="black" d="M1112.84,-648.46C1180.99,-636.62 1271.85,-620.83 1337.15,-609.49"/>
<polygon fill="black" stroke="black" points="1338.15,-612.87 1347.41,-607.71 1336.96,-605.97 1338.15,-612.87"/>
</g>
<!-- [root] provider[&quot;registry.terraform.io/hashicorp/kubernetes&quot;]&#45;&gt;[root] azurerm_kubernetes_cluster.aks (expand) -->
<g id="edge41" class="edge">
<title>[root] provider[&quot;registry.terraform.io/hashicorp/kubernetes&quot;]&#45;&gt;[root] azurerm_kubernetes_cluster.aks (expand)</title>
<path fill="none" stroke="black" d="M1634.29,-360.41C1630.27,-352.37 1625.34,-342.51 1620.82,-333.47"/>
<polygon fill="black" stroke="black" points="1623.91,-331.83 1616.31,-324.45 1617.65,-334.96 1623.91,-331.83"/>
</g>
<!-- [root] meta.count&#45;boundary (EachMode fixup) -->
<g id="node33" class="node">
<title>[root] meta.count&#45;boundary (EachMode fixup)</title>
<ellipse fill="none" stroke="black" cx="989.59" cy="-738" rx="180.87" ry="18"/>
<text text-anchor="middle" x="989.59" y="-734.3" font-family="Times New Roman,serif" font-size="14.00">[root] meta.count&#45;boundary (EachMode fixup)</text>
</g>
<!-- [root] meta.count&#45;boundary (EachMode fixup)&#45;&gt;[root] azurerm_postgresql_virtual_network_rule.pg_vnet_rule (expand) -->
<g id="edge32" class="edge">
<title>[root] meta.count&#45;boundary (EachMode fixup)&#45;&gt;[root] azurerm_postgresql_virtual_network_rule.pg_vnet_rule (expand)</title>
<path fill="none" stroke="black" d="M941.5,-720.63C890.92,-699.99 818.59,-659.25 818.59,-595 818.59,-595 818.59,-595 818.59,-521 818.59,-480.92 814.97,-434.59 812.32,-406.05"/>
<polygon fill="black" stroke="black" points="815.8,-405.65 811.36,-396.03 808.83,-406.31 815.8,-405.65"/>
</g>
<!-- [root] meta.count&#45;boundary (EachMode fixup)&#45;&gt;[root] kubernetes_horizontal_pod_autoscaler.hpa (expand) -->
<g id="edge33" class="edge">
<title>[root] meta.count&#45;boundary (EachMode fixup)&#45;&gt;[root] kubernetes_horizontal_pod_autoscaler.hpa (expand)</title>
<path fill="none" stroke="black" d="M1057.06,-721.2C1101.2,-710.87 1159.16,-697.3 1206.04,-686.32"/>
<polygon fill="black" stroke="black" points="1206.93,-689.71 1215.87,-684.02 1205.33,-682.9 1206.93,-689.71"/>
</g>
<!-- [root] meta.count&#45;boundary (EachMode fixup)&#45;&gt;[root] output.Application_Access_IP -->
<g id="edge34" class="edge">
<title>[root] meta.count&#45;boundary (EachMode fixup)&#45;&gt;[root] output.Application_Access_IP</title>
<path fill="none" stroke="black" d="M996.51,-719.7C999.66,-711.81 1003.46,-702.3 1006.97,-693.55"/>
<polygon fill="black" stroke="black" points="1010.28,-694.69 1010.74,-684.1 1003.78,-692.09 1010.28,-694.69"/>
</g>
<!-- [root] provider[&quot;registry.terraform.io/hashicorp/azurerm&quot;] (close) -->
<g id="node34" class="node">
<title>[root] provider[&quot;registry.terraform.io/hashicorp/azurerm&quot;] (close)</title>
<ellipse fill="none" stroke="black" cx="1093.59" cy="-450" rx="246.96" ry="18"/>
<text text-anchor="middle" x="1093.59" y="-446.3" font-family="Times New Roman,serif" font-size="14.00">[root] provider[&quot;registry.terraform.io/hashicorp/azurerm&quot;] (close)</text>
</g>
<!-- [root] provider[&quot;registry.terraform.io/hashicorp/azurerm&quot;] (close)&#45;&gt;[root] azurerm_kubernetes_cluster.aks (expand) -->
<g id="edge36" class="edge">
<title>[root] provider[&quot;registry.terraform.io/hashicorp/azurerm&quot;] (close)&#45;&gt;[root] azurerm_kubernetes_cluster.aks (expand)</title>
<path fill="none" stroke="black" d="M1146.29,-432.39C1170.8,-423.47 1199.73,-411.17 1223.59,-396 1243.49,-383.34 1241.33,-370.24 1262.59,-360 1303.48,-340.3 1414.67,-325.51 1499.87,-316.62"/>
<polygon fill="black" stroke="black" points="1500.27,-320.1 1509.86,-315.6 1499.56,-313.14 1500.27,-320.1"/>
</g>
<!-- [root] provider[&quot;registry.terraform.io/hashicorp/azurerm&quot;] (close)&#45;&gt;[root] azurerm_postgresql_database.pg_db (expand) -->
<g id="edge37" class="edge">
<title>[root] provider[&quot;registry.terraform.io/hashicorp/azurerm&quot;] (close)&#45;&gt;[root] azurerm_postgresql_database.pg_db (expand)</title>
<path fill="none" stroke="black" d="M1095.81,-431.7C1096.8,-423.98 1097.99,-414.71 1099.1,-406.11"/>
<polygon fill="black" stroke="black" points="1102.58,-406.47 1100.39,-396.1 1095.64,-405.58 1102.58,-406.47"/>
</g>
<!-- [root] provider[&quot;registry.terraform.io/hashicorp/azurerm&quot;] (close)&#45;&gt;[root] azurerm_postgresql_virtual_network_rule.pg_vnet_rule (expand) -->
<g id="edge38" class="edge">
<title>[root] provider[&quot;registry.terraform.io/hashicorp/azurerm&quot;] (close)&#45;&gt;[root] azurerm_postgresql_virtual_network_rule.pg_vnet_rule (expand)</title>
<path fill="none" stroke="black" d="M1027,-432.59C985.63,-422.39 932.23,-409.23 888.7,-398.5"/>
<polygon fill="black" stroke="black" points="889.27,-395.03 878.72,-396.04 887.59,-401.83 889.27,-395.03"/>
</g>
<!-- [root] provider[&quot;registry.terraform.io/hashicorp/kubernetes&quot;] (close) -->
<g id="node35" class="node">
<title>[root] provider[&quot;registry.terraform.io/hashicorp/kubernetes&quot;] (close)</title>
<ellipse fill="none" stroke="black" cx="1445.59" cy="-738" rx="257.25" ry="18"/>
<text text-anchor="middle" x="1445.59" y="-734.3" font-family="Times New Roman,serif" font-size="14.00">[root] provider[&quot;registry.terraform.io/hashicorp/kubernetes&quot;] (close)</text>
</g>
<!-- [root] provider[&quot;registry.terraform.io/hashicorp/kubernetes&quot;] (close)&#45;&gt;[root] kubernetes_horizontal_pod_autoscaler.hpa (expand) -->
<g id="edge39" class="edge">
<title>[root] provider[&quot;registry.terraform.io/hashicorp/kubernetes&quot;] (close)&#45;&gt;[root] kubernetes_horizontal_pod_autoscaler.hpa (expand)</title>
<path fill="none" stroke="black" d="M1407.58,-720.05C1386.04,-710.45 1358.91,-698.35 1335.99,-688.14"/>
<polygon fill="black" stroke="black" points="1337.34,-684.91 1326.78,-684.03 1334.49,-691.3 1337.34,-684.91"/>
</g>
<!-- [root] provider[&quot;registry.terraform.io/hashicorp/kubernetes&quot;] (close)&#45;&gt;[root] kubernetes_service.svc (expand) -->
<g id="edge40" class="edge">
<title>[root] provider[&quot;registry.terraform.io/hashicorp/kubernetes&quot;] (close)&#45;&gt;[root] kubernetes_service.svc (expand)</title>
<path fill="none" stroke="black" d="M1442.57,-719.87C1438.31,-695.67 1430.48,-651.21 1425.41,-622.39"/>
<polygon fill="black" stroke="black" points="1428.79,-621.43 1423.61,-612.19 1421.9,-622.64 1428.79,-621.43"/>
</g>
<!-- [root] root -->
<g id="node36" class="node">
<title>[root] root</title>
<ellipse fill="none" stroke="black" cx="989.59" cy="-810" rx="49.29" ry="18"/>
<text text-anchor="middle" x="989.59" y="-806.3" font-family="Times New Roman,serif" font-size="14.00">[root] root</text>
</g>
<!-- [root] root&#45;&gt;[root] meta.count&#45;boundary (EachMode fixup) -->
<g id="edge42" class="edge">
<title>[root] root&#45;&gt;[root] meta.count&#45;boundary (EachMode fixup)</title>
<path fill="none" stroke="black" d="M989.59,-791.7C989.59,-783.98 989.59,-774.71 989.59,-766.11"/>
<polygon fill="black" stroke="black" points="993.09,-766.1 989.59,-756.1 986.09,-766.1 993.09,-766.1"/>
</g>
<!-- [root] root&#45;&gt;[root] provider[&quot;registry.terraform.io/hashicorp/azurerm&quot;] (close) -->
<g id="edge43" class="edge">
<title>[root] root&#45;&gt;[root] provider[&quot;registry.terraform.io/hashicorp/azurerm&quot;] (close)</title>
<path fill="none" stroke="black" d="M939.92,-808.73C896.73,-805.72 835.59,-794.3 799.59,-756 771.88,-726.53 780.59,-707.45 780.59,-667 780.59,-667 780.59,-667 780.59,-593 780.59,-519.05 853.94,-483.42 929.63,-466.34"/>
<polygon fill="black" stroke="black" points="930.79,-469.67 939.84,-464.15 929.32,-462.82 930.79,-469.67"/>
</g>
<!-- [root] root&#45;&gt;[root] provider[&quot;registry.terraform.io/hashicorp/kubernetes&quot;] (close) -->
<g id="edge44" class="edge">
<title>[root] root&#45;&gt;[root] provider[&quot;registry.terraform.io/hashicorp/kubernetes&quot;] (close)</title>
<path fill="none" stroke="black" d="M1034.14,-802.16C1103.08,-791.58 1237.7,-770.91 1334.19,-756.1"/>
<polygon fill="black" stroke="black" points="1334.93,-759.53 1344.29,-754.55 1333.87,-752.61 1334.93,-759.53"/>
</g>
</g>
</svg>
